<?xml version="1.0" encoding="UTF-8"?>
<svg id="Laag_1" data-name="Laag 1" xmlns="http://www.w3.org/2000/svg" viewBox="0 0 460.45 393.78">
  <defs>
    <style>
      .cls-1 {
        letter-spacing: -.04em;
      }

      .cls-2 {
        letter-spacing: -.03em;
      }

      .cls-3 {
        fill: #fff;
        font-family: IvyOraDisplay-Bold, 'IvyOra Display';
        font-size: 120px;
      }

      .cls-4 {
        fill: #d9b88f;
      }

      .cls-5 {
        letter-spacing: -.03em;
      }
    </style>
  </defs>
  <g>
    <path class="cls-4" d="M423.46,311.4c-3.54,5.2-7.51,10.07-11.65,14.8-12.95,14.81-27.76,27.45-44.47,37.85-19.46,12.12-40.39,20.58-62.82,25.36-14.54,3.1-29.26,4.66-44.11,4.33-38.73-.86-74.37-11.83-106.53-33.53-30.36-20.48-53.31-47.4-68.88-80.57-7.98-17.01-13.31-34.83-16.09-53.4-2.56-17.14-3-34.34-.81-51.54,3.39-26.69,12.7-51.22,27.88-73.44,16.84-24.65,38.64-43.7,65.38-57.02,16.05-7.99,32.98-13.28,50.73-15.78,28.51-4.01,56.35-1.16,83.37,8.89,22.47,8.36,42.25,21,59.42,37.74,7.6,7.4,14.43,15.45,20.51,24.15,.25,.35,.46,.73,.69,1.1,.1,.39-.07,.51-.43,.45-5.46-6.15-11.22-11.98-17.56-17.25-18.47-15.35-39.39-25.71-62.84-30.9-16.81-3.72-33.77-4.45-50.83-2.2-23.74,3.13-45.49,11.49-65.1,25.27-24.05,16.89-41.69,38.94-52.77,66.18-6.78,16.66-10.27,34.03-10.58,52-.4,23.31,3.78,45.8,12.5,67.43,10.54,26.16,26.51,48.48,47.78,66.97,20.18,17.55,43.22,29.84,69.05,36.81,19.71,5.32,39.75,7.11,60.1,5.35,33.99-2.94,64.51-14.84,91.61-35.52,9.13-6.96,17.46-14.8,25.03-23.44,.28-.33,.61-.62,.91-.92,.33-.07,.24-.51,.52-.62l.04-.05c.06-.16,.17-.28,.32-.35l.02-.03c.09-.15,.2-.27,.33-.39h0c.6,0,.67,.25,.35,.7v.02c-.1,.15-.25,.26-.32,.43v-.02c-.18,.11-.31,.25-.33,.48,0,.11-.05,.19-.14,.24-.08,.14-.18,.28-.29,.4Z"/>
    <path class="cls-4" d="M106.05,79.07c4.12-5.79,8.75-11.16,13.59-16.34,12.98-13.93,27.66-25.75,44.05-35.44,15.35-9.08,31.63-15.94,48.85-20.57C236.37,.31,260.56-1.46,285.06,1.18c22.98,2.47,44.84,8.86,65.55,19.16,29.66,14.75,54.12,35.64,73.37,62.57,14.6,20.42,24.86,42.87,30.83,67.26,4.06,16.59,6.04,33.43,5.58,50.49-.7,25.96-6.95,50.55-18.97,73.62-13.51,25.91-32.45,46.98-56.7,63.25-19.42,13.03-40.68,21.59-63.7,25.77-17.15,3.12-34.39,3.58-51.66,1.37-27.2-3.47-52.12-13.02-74.72-28.58-14.67-10.1-27.42-22.23-38.32-36.31-.19-.24-.35-.51-.53-.77-.28-.13-.15-.55-.47-.65h.01c-.03-.19-.19-.3-.33-.42h0c-.12-.12-.22-.26-.32-.41l-.02-.03c-.33-.43-.3-.68,.31-.67h0c.15,.1,.26,.23,.33,.38l.03,.03c.16,.07,.27,.19,.33,.35l.04,.04c.16,.06,.27,.18,.32,.34l.05,.05c.16,.05,.26,.15,.3,.31,5.73,5.9,11.79,11.43,18.37,16.38,17.42,13.09,36.71,22.18,58.08,26.51,40.41,8.18,78.19,1.31,112.5-21.63,32.6-21.79,53.32-52.18,62.28-90.42,3.36-14.34,4.14-28.9,3.23-43.59-1.2-19.3-5.46-37.88-12.85-55.74-8.34-20.17-20.07-38.17-35.15-53.94-18.75-19.62-40.85-34.18-66.32-43.58-13.25-4.89-26.9-8.06-40.94-9.61-13.17-1.46-26.34-1.45-39.48,.11-28.51,3.38-54.64,13.19-78.34,29.4-10.83,7.4-20.68,15.94-29.6,25.57-.55,.59-1.12,1.16-1.68,1.74-.38,.07-.54-.06-.45-.46Z"/>
    <path class="cls-4" d="M152.76,294.22c.64,.74,1.28,1.47,1.91,2.21-.09,.24-.24,.43-.48,.52-.73-.69-1.25-1.54-1.8-2.37-.15-.39,.03-.46,.37-.37Z"/>
    <path class="cls-4" d="M424.55,309.85c-.12-.24-.23-.47-.35-.71,.33-.75,.91-1.31,1.47-1.88,.37-.07,.54,.05,.43,.44-.45,.76-.87,1.55-1.55,2.14Z"/>
    <path class="cls-4" d="M106.05,79.07c.15,.15,.3,.3,.45,.46-.34,.76-.97,1.26-1.52,1.85-.36,.06-.54-.05-.42-.44,.43-.68,.82-1.38,1.49-1.86Z"/>
    <path class="cls-4" d="M375.67,100.79c.14-.15,.29-.3,.43-.45,.66,.51,1.02,1.24,1.44,1.93,.13,.4-.04,.49-.4,.4-.53-.6-1.16-1.11-1.48-1.88Z"/>
    <path class="cls-4" d="M104.56,80.93c.14,.15,.28,.29,.42,.44l-1.51,1.85c-.34,.09-.52,.03-.37-.37,.46-.66,.82-1.4,1.46-1.92Z"/>
    <path class="cls-4" d="M426.11,307.71c-.14-.15-.28-.3-.43-.44,.25-.59,.72-1.02,1.14-1.48,.34-.08,.54-.01,.38,.39-.3,.56-.59,1.13-1.1,1.53Z"/>
    <path class="cls-4" d="M103.1,82.85c.12,.12,.25,.24,.37,.37-.29,.52-.6,1.03-1.39,1.33,.19-.81,.57-1.27,1.02-1.69Z"/>
    <path class="cls-4" d="M378.33,103.36c.45,.43,.75,.94,1.03,1.74-.84-.31-1.12-.83-1.42-1.34,.08-.18,.14-.38,.39-.4Z"/>
    <path class="cls-4" d="M151.25,293.1c-.38-.4-.73-.82-.93-1.54,.74,.19,1.03,.68,1.32,1.18-.09,.16-.14,.36-.39,.36Z"/>
    <path class="cls-4" d="M151.25,293.1c.13-.12,.26-.24,.39-.36,.38,.49,.75,.98,1.13,1.48-.12,.12-.24,.24-.37,.37-.52-.39-.78-.98-1.15-1.48Z"/>
    <path class="cls-4" d="M427.61,304.69c.31-.49,.56-1.04,1.34-1.31-.13,.76-.52,1.25-.95,1.71-.25-.02-.32-.21-.39-.4Z"/>
    <path class="cls-4" d="M378.33,103.36c-.13,.13-.26,.26-.39,.4-.26-.36-.53-.72-.79-1.09,.13-.13,.27-.27,.4-.4,.26,.36,.52,.73,.78,1.09Z"/>
    <path class="cls-4" d="M427.61,304.69c.13,.13,.26,.27,.39,.4-.26,.36-.52,.73-.78,1.09-.13-.13-.26-.26-.38-.39,.26-.37,.52-.73,.78-1.1Z"/>
    <path class="cls-4" d="M154.19,296.95c.16-.17,.32-.35,.48-.52,.18,.08,.3,.2,.31,.41-.1,.23-.21,.45-.31,.67-.25-.11-.41-.3-.48-.57Z"/>
    <path class="cls-4" d="M155.31,298.37c.28,.13,.46,.33,.47,.65-.27-.13-.45-.33-.47-.65Z"/>
    <path class="cls-4" d="M423.5,309.96c-.04,.32-.23,.52-.52,.62,.05-.31,.24-.5,.52-.62Z"/>
    <path class="cls-4" d="M155.33,297.22c-.2-.04-.31-.17-.33-.37,.21,.04,.32,.16,.33,.37Z"/>
    <path class="cls-4" d="M155.69,297.6c-.19-.04-.31-.15-.33-.35,.2,.03,.31,.14,.33,.35Z"/>
    <path class="cls-4" d="M154.69,297.54c.19,.07,.3,.2,.32,.41-.2-.06-.31-.19-.32-.41Z"/>
    <path class="cls-4" d="M156.05,297.97c-.19-.03-.3-.15-.32-.34,.19,.03,.3,.14,.32,.34Z"/>
    <path class="cls-4" d="M155,297.95c.19,.08,.3,.22,.33,.43-.22-.06-.32-.21-.33-.43Z"/>
    <path class="cls-4" d="M156.39,298.34c-.18-.02-.28-.13-.3-.31,.19,.02,.28,.13,.3,.31Z"/>
    <path class="cls-4" d="M424.21,309.15c-.03,.2-.14,.33-.33,.39,.01-.21,.13-.34,.33-.39Z"/>
    <path class="cls-4" d="M423.85,309.56c-.03,.19-.14,.3-.32,.35,0-.21,.12-.32,.32-.35Z"/>
    <path class="cls-4" d="M424.23,310.3c.02-.21,.13-.34,.31-.43,0,.22-.1,.36-.31,.43Z"/>
    <path class="cls-4" d="M423.9,310.76c.11-.16,.23-.32,.34-.48-.01,.23-.12,.4-.34,.48Z"/>
    <path class="cls-4" d="M423.46,311.4c0-.2,.11-.33,.29-.4,.01,.21-.09,.34-.29,.4Z"/>
  </g>
  <text class="cls-3" transform="translate(0 244.22)"><tspan class="cls-1" x="0" y="0">F</tspan><tspan x="65.28" y="0">ell</tspan><tspan class="cls-5" x="195.12" y="0">o</tspan><tspan class="cls-2" x="260.76" y="0">w</tspan></text>
</svg>